<svg xmlns="http://www.w3.org/2000/svg" width="122.587" height="111.878" viewBox="0 0 122.587 111.878">
  <g id="Layer_2" data-name="Layer 2" transform="translate(-48.16)">
    <g id="Layer_1" data-name="Layer 1">
      <path id="Path_350" data-name="Path 350" d="M138.777,46.108,131.518,53.4,77.766,12.7,23.389,52.563l-7.2-7.377,53.1-38.909L77.885,0l8.478,6.425,25.225,19.1V19.811h10.828V33.7Z" transform="translate(31.97)" fill="#89043d"/>
      <rect id="Rectangle_574" data-name="Rectangle 574" width="10.828" height="3.748" transform="translate(143.588 15.26)" fill="#89043d"/>
      <circle id="Ellipse_12" data-name="Ellipse 12" cx="3.689" cy="3.689" r="3.689" transform="translate(145.343 48.844)" fill="#89043d"/>
      <circle id="Ellipse_13" data-name="Ellipse 13" cx="3.689" cy="3.689" r="3.689" transform="translate(68.864 48.844)" fill="#89043d"/>
      <rect id="Rectangle_575" data-name="Rectangle 575" width="9.995" height="7.377" transform="translate(94.892 48.844)" fill="#89043d"/>
      <rect id="Rectangle_576" data-name="Rectangle 576" width="9.995" height="7.377" transform="translate(94.892 62.439)" fill="#89043d"/>
      <rect id="Rectangle_577" data-name="Rectangle 577" width="9.995" height="7.377" transform="translate(109.498 62.439)" fill="#89043d"/>
      <path id="Path_351" data-name="Path 351" d="M110.645,25.81a44.382,44.382,0,0,1-88.765,0,30.91,30.91,0,0,1,.238-4.7H35.266a30.252,30.252,0,0,0-.744,6.812A31.8,31.8,0,1,0,97.377,21.11h13a41.112,41.112,0,0,1,.268,4.7Z" transform="translate(43.206 41.686)" fill="#89043d"/>
      <rect id="Rectangle_578" data-name="Rectangle 578" width="9.995" height="7.377" transform="translate(110.153 48.844)" fill="#89043d"/>
    </g>
  </g>
</svg>
