<svg xmlns="http://www.w3.org/2000/svg" width="24.036" height="16.468" viewBox="0 0 24.036 16.468">
  <path id="Path_348" data-name="Path 348" d="M21.923,80.609H2.113A2.115,2.115,0,0,0,0,82.722V94.964a2.115,2.115,0,0,0,2.113,2.113H21.923a2.115,2.115,0,0,0,2.113-2.113V82.722A2.115,2.115,0,0,0,21.923,80.609Zm-.276,1.408-.282.235-8.51,7.086a1.31,1.31,0,0,1-1.676,0L2.67,82.252l-.282-.235ZM1.408,83.034l6.933,5.773L1.408,93.422ZM21.923,95.668H2.113a.705.705,0,0,1-.69-.564l8.049-5.357.808.673a2.718,2.718,0,0,0,3.479,0l.808-.673L22.614,95.1A.705.705,0,0,1,21.923,95.668Zm.7-2.246-6.933-4.614,6.933-5.774Z" transform="translate(0 -80.609)" fill="#00a9a5"/>
</svg>
