<svg xmlns="http://www.w3.org/2000/svg" width="23.787" height="21.805" viewBox="0 0 23.787 21.805">
  <g id="phone" transform="translate(0 -21.333)">
    <g id="Group_189" data-name="Group 189" transform="translate(0 21.333)">
      <g id="Group_188" data-name="Group 188" transform="translate(0 0)">
        <path id="Path_346" data-name="Path 346" d="M23.383,26.336a15.692,15.692,0,0,0-22.977,0,1.512,1.512,0,0,0,0,2.06l2.286,2.4a1.425,1.425,0,0,0,2.027,0A10.042,10.042,0,0,1,7.3,28.833a1.443,1.443,0,0,0,.775-1.243l.345-2.6a10.285,10.285,0,0,1,6.955,0l.341,2.54a1.49,1.49,0,0,0,.768,1.312,10.072,10.072,0,0,1,2.584,1.969,1.391,1.391,0,0,0,2.027,0l2.291-2.41A1.512,1.512,0,0,0,23.383,26.336Z" transform="translate(0 -21.333)" fill="#00a9a5"/>
        <path id="Path_347" data-name="Path 347" d="M59.027,193.312A2.474,2.474,0,0,0,56.84,192H48.317a2.474,2.474,0,0,0-2.187,1.312l-3.172,5.947a2.49,2.49,0,0,0-.291,1.166v3.469a1.985,1.985,0,0,0,1.982,1.982H60.508a1.985,1.985,0,0,0,1.982-1.982v-3.469a2.493,2.493,0,0,0-.291-1.166ZM49.6,202.9a.991.991,0,1,1,.991-.991A.992.992,0,0,1,49.6,202.9Zm0-2.973a.991.991,0,1,1,.991-.991A.992.992,0,0,1,49.6,199.929Zm0-2.973a.991.991,0,1,1,.991-.991A.992.992,0,0,1,49.6,196.956Zm2.974,5.947a.991.991,0,1,1,.991-.991A.992.992,0,0,1,52.578,202.9Zm0-2.973a.991.991,0,1,1,.991-.991A.992.992,0,0,1,52.578,199.929Zm0-2.973a.991.991,0,1,1,.991-.991A.992.992,0,0,1,52.578,196.956Zm2.972,5.947a.991.991,0,1,1,.991-.991A.992.992,0,0,1,55.551,202.9Zm0-2.973a.991.991,0,1,1,.991-.991A.992.992,0,0,1,55.551,199.929Zm0-2.973a.991.991,0,1,1,.991-.991A.992.992,0,0,1,55.551,196.956Z" transform="translate(-40.685 -184.071)" fill="#00a9a5"/>
      </g>
    </g>
  </g>
</svg>
