<svg xmlns="http://www.w3.org/2000/svg" width="24.036" height="23.786" viewBox="0 0 24.036 23.786">
  <g id="working" transform="translate(0 -0.094)">
    <path id="Path_339" data-name="Path 339" d="M240.326,237.468a.366.366,0,1,1-.366-.366A.366.366,0,0,1,240.326,237.468Zm0,0" transform="translate(-227.942 -225.482)" fill="#00a9a5"/>
    <path id="Path_340" data-name="Path 340" d="M145.5,138.249h.714a5.126,5.126,0,0,0-4.741-4.741v.714h-.732v-.714A5.126,5.126,0,0,0,136,138.249h.714v.732H136a5.126,5.126,0,0,0,4.741,4.741v-.714h.732v.714a5.126,5.126,0,0,0,4.741-4.741H145.5Zm-4.394,1.465a1.086,1.086,0,0,1-.471-.11l-1.468,1.468-.518-.518,1.467-1.468a1.078,1.078,0,0,1-.11-.47,1.1,1.1,0,0,1,.732-1.031v-2.63h.732v2.63a1.1,1.1,0,0,1-.366,2.13Zm0,0" transform="translate(-129.089 -126.629)" fill="#00a9a5"/>
    <path id="Path_341" data-name="Path 341" d="M118.5,109.1a6.9,6.9,0,1,0,6.911,6.9A6.907,6.907,0,0,0,118.5,109.1Zm0,13.4a6.5,6.5,0,1,1,6.5-6.5A6.5,6.5,0,0,1,118.5,122.5Zm0,0" transform="translate(-106.487 -104.019)" fill="#00a9a5"/>
    <path id="Path_342" data-name="Path 342" d="M287.8,39.594l-.965.966a9.956,9.956,0,0,0-8.329-8.924l-.11.724a9.217,9.217,0,0,1,7.69,8.109l-.875-.875-.518.518,1.553,1.553a.366.366,0,0,0,.518,0l1.553-1.553Zm0,0" transform="translate(-264.284 -30.099)" fill="#00a9a5"/>
    <path id="Path_343" data-name="Path 343" d="M2.231,238.4l.875.875.518-.518-1.553-1.553a.366.366,0,0,0-.518,0L0,238.762l.518.518.965-.966a9.959,9.959,0,0,0,8.329,8.923l.11-.724a9.217,9.217,0,0,1-7.69-8.109Zm0,0" transform="translate(0 -224.802)" fill="#00a9a5"/>
    <path id="Path_344" data-name="Path 344" d="M240.773,283.621l.875-1.044-.56-.471-1.412,1.684a.366.366,0,0,0,.045.516l1.684,1.412.471-.561-.97-.816a9.959,9.959,0,0,0,8.82-8.318l-.724-.11a9.218,9.218,0,0,1-8.229,7.707Zm0,0" transform="translate(-227.251 -261.839)" fill="#00a9a5"/>
    <path id="Path_345" data-name="Path 345" d="M43.081,2.19l-.875,1.045.56.471,1.412-1.684a.366.366,0,0,0-.045-.516L42.449.094,41.98.656l.969.813a9.959,9.959,0,0,0-8.82,8.318l.724.11A9.218,9.218,0,0,1,43.081,2.19Zm0,0" transform="translate(-32.567)" fill="#00a9a5"/>
  </g>
</svg>
